<?xml version="1.0" encoding="UTF-8" standalone="no"?>
<!DOCTYPE svg PUBLIC "-//W3C//DTD SVG 1.1//EN" "http://www.w3.org/Graphics/SVG/1.1/DTD/svg11.dtd">
<svg width="100%" height="100%" viewBox="0 0 16 14" version="1.1" xmlns="http://www.w3.org/2000/svg" xmlns:xlink="http://www.w3.org/1999/xlink" xml:space="preserve" xmlns:serif="http://www.serif.com/" style="fill-rule:evenodd;clip-rule:evenodd;stroke-linejoin:round;stroke-miterlimit:2;">
    <g transform="matrix(1,0,0,1,-4,-5)">
        <g>
            <g transform="matrix(-3.82857e-16,1,-1,-3.82857e-16,24,5.32907e-15)">
                <rect x="0" y="0" width="24" height="24" style="fill-opacity:0;"/>
            </g>
            <path d="M19,11L7.14,11L10.77,6.64C10.919,6.46 11.001,6.234 11.001,6C11.001,5.451 10.549,4.999 10,4.999C9.703,4.999 9.42,5.131 9.23,5.36L4.23,11.36C4.196,11.408 4.166,11.458 4.14,11.51C4.14,11.56 4.14,11.59 4.07,11.64C4.025,11.755 4.001,11.877 4,12C4.001,12.123 4.025,12.245 4.07,12.36C4.07,12.41 4.07,12.44 4.14,12.49C4.166,12.542 4.196,12.592 4.23,12.64L9.23,18.64C9.42,18.868 9.703,19 10,19C10.234,19 10.46,18.919 10.64,18.77C10.869,18.58 11.002,18.298 11.002,18C11.002,17.766 10.92,17.54 10.77,17.36L7.14,13L19,13C19.549,13 20,12.549 20,12C20,11.451 19.549,11 19,11Z" style="fill:white;fill-rule:nonzero;"/>
        </g>
    </g>
</svg>
